Coordinates
version=1
nRows=27
nColumns=12
inDegrees=yes

Units are S.I. units (second, meters, Newtons, ...)
Angles are in degrees

endheader
time	SC_y	SC_z	SC_x	AC_y	AC_z	AC_x	GH_y	GH_z	GH_yy	EL_x	PS_y
       0.0              -48.37          35.35            9.9          37.45         -16.53         -18.96          89.57         -13.93         -131.7          99.86          88.42
  0.006374              -48.37          35.35          9.911          37.45         -16.53         -18.95          89.56         -13.92         -131.7          99.85          88.42
   0.01275              -48.36          35.34          9.923          37.45         -16.53         -18.95          89.56         -13.92         -131.6          99.85          88.41
   0.01912              -48.36          35.34          9.935          37.46         -16.52         -18.95          89.55         -13.91         -131.6          99.84           88.4
   0.02549              -48.36          35.33          9.948          37.46         -16.52         -18.94          89.54          -13.9         -131.5          99.84           88.4
   0.03187              -48.36          35.32          9.962          37.47         -16.52         -18.94          89.54         -13.89         -131.5          99.83          88.39
   0.03824              -48.36          35.32          9.977          37.47         -16.52         -18.93          89.53         -13.89         -131.5          99.82          88.38
   0.04461              -48.36          35.31          9.993          37.48         -16.52         -18.93          89.52         -13.88         -131.4          99.82          88.37
   0.05099              -48.36           35.3          10.01          37.48         -16.52         -18.92          89.51         -13.87         -131.4          99.81          88.36
   0.05736              -48.36          35.29          10.03          37.49         -16.51         -18.92           89.5         -13.86         -131.3           99.8          88.35
   0.06374              -48.35          35.28          10.05           37.5         -16.51         -18.91          89.49         -13.85         -131.2          99.79          88.34
   0.07011              -48.35          35.27          10.07           37.5         -16.51          -18.9          89.48         -13.84         -131.2          99.78          88.33
   0.07648              -48.35          35.26          10.09          37.51         -16.51          -18.9          89.46         -13.82         -131.1          99.77          88.31
   0.08286              -48.35          35.25          10.12          37.52          -16.5         -18.89          89.45         -13.81         -131.0          99.76           88.3
   0.08923              -48.35          35.24          10.14          37.53          -16.5         -18.88          89.44          -13.8         -130.9          99.75          88.29
    0.0956              -48.34          35.23          10.17          37.54          -16.5         -18.87          89.42         -13.78         -130.8          99.74          88.27
     0.102              -48.34          35.21           10.2          37.55         -16.49         -18.86           89.4         -13.76         -130.7          99.72          88.25
    0.1084              -48.34           35.2          10.24          37.56         -16.49         -18.85          89.39         -13.75         -130.6          99.71          88.23
    0.1147              -48.34          35.18          10.28          37.57         -16.49         -18.84          89.36         -13.73         -130.5          99.69          88.21
    0.1211              -48.33          35.16          10.32          37.59         -16.48         -18.82          89.34          -13.7         -130.4          99.68          88.19
    0.1275              -48.33          35.14          10.36           37.6         -16.48         -18.81          89.32         -13.68         -130.3          99.66          88.16
    0.1338              -48.33          35.12          10.41          37.62         -16.47         -18.79          89.29         -13.65         -130.1          99.63          88.14
    0.1402              -48.32          35.09          10.47          37.64         -16.47         -18.77          89.26         -13.62         -129.9          99.61          88.11
    0.1466              -48.32          35.06          10.53          37.66         -16.46         -18.75          89.23         -13.59         -129.7          99.58          88.07
     0.153              -48.31          35.03           10.6          37.68         -16.45         -18.73          89.19         -13.55         -129.5          99.55          88.03
    0.1593               -48.3           35.0          10.67          37.71         -16.44         -18.71          89.15         -13.51         -129.3          99.52          87.99
    0.1657               -48.3          34.96          10.75          37.74         -16.43         -18.68          89.11         -13.47         -129.0          99.48          87.94
